<svg width="40" height="41" viewBox="0 0 40 41" fill="none" xmlns="http://www.w3.org/2000/svg">
<circle cx="20" cy="20.4814" r="19" stroke="white" stroke-width="2"/>
<g clip-path="url(#clip0_374_1676)">
<path d="M20.1758 29.4812C20.116 29.4812 20.0562 29.4812 19.9965 29.4812C18.5867 29.4847 17.2824 29.4496 16.0133 29.3722C14.8496 29.3019 13.7914 28.9011 12.9441 28.2121C12.1285 27.5477 11.573 26.6477 11.2883 25.5403C11.0422 24.577 11.0281 23.6278 11.0176 22.7138C11.0105 22.0529 11.0035 21.276 11 20.4814C11.0035 19.6869 11.0105 18.9065 11.0211 18.2491C11.0352 17.335 11.0457 16.3859 11.2918 15.4226C11.573 14.3152 12.132 13.4152 12.9477 12.7508C13.7914 12.0617 14.8531 11.661 16.0168 11.5907C17.2824 11.5133 18.5867 11.4782 20 11.4817C21.4098 11.4782 22.7141 11.5133 23.9832 11.5907C25.1469 11.661 26.2051 12.0617 27.0523 12.7508C27.868 13.4152 28.4234 14.3152 28.7082 15.4226C28.9543 16.3859 28.9684 17.335 28.9789 18.2491C28.9895 18.9065 28.9965 19.6834 29 20.4779V20.4814C28.9965 21.2724 28.9895 22.0529 28.9789 22.7103C28.9648 23.6243 28.9543 24.5735 28.7082 25.5368C28.427 26.6442 27.868 27.5441 27.0523 28.2086C26.2086 28.8976 25.1469 29.2984 23.9832 29.3687C22.7703 29.446 21.5223 29.4812 20.1758 29.4812ZM19.9965 28.075C21.3852 28.0785 22.6578 28.0434 23.8953 27.9695C24.7742 27.9168 25.5371 27.632 26.1594 27.1223C26.7359 26.6512 27.1332 26.0008 27.3406 25.1923C27.5445 24.3907 27.5586 23.5259 27.5691 22.6927C27.5797 22.0388 27.5867 21.2654 27.5902 20.4814C27.5867 19.6975 27.5797 18.9241 27.5691 18.2702C27.5586 17.437 27.5445 16.5757 27.3406 15.7706C27.1332 14.9621 26.7359 14.3117 26.1594 13.8406C25.5336 13.3309 24.7742 13.0461 23.8953 12.9934C22.6578 12.9195 21.3816 12.8844 19.9965 12.8879C18.6078 12.8844 17.3352 12.9195 16.0977 12.9934C15.2188 13.0461 14.4559 13.3309 13.8336 13.8406C13.257 14.3117 12.8598 14.9621 12.6559 15.7741C12.452 16.5757 12.4379 17.4405 12.4273 18.2737C12.4168 18.9276 12.4098 19.701 12.4062 20.485C12.4098 21.2654 12.4168 22.0388 12.4273 22.6927C12.4379 23.5259 12.452 24.3872 12.6559 25.1923C12.8633 26.0008 13.2605 26.6512 13.8371 27.1223C14.4629 27.632 15.2223 27.9168 16.1012 27.9695C17.3387 28.0434 18.6148 28.0785 19.9965 28.075ZM19.9648 24.8759C17.5426 24.8759 15.5703 22.9036 15.5703 20.4814C15.5703 18.0592 17.5426 16.087 19.9648 16.087C22.3871 16.087 24.3594 18.0592 24.3594 20.4814C24.3594 22.9036 22.3871 24.8759 19.9648 24.8759ZM19.9648 17.4932C18.316 17.4932 16.9766 18.8327 16.9766 20.4814C16.9766 22.1302 18.316 23.4696 19.9648 23.4696C21.6137 23.4696 22.9531 22.1302 22.9531 20.4814C22.9531 18.8327 21.6137 17.4932 19.9648 17.4932ZM24.8516 14.6808C24.268 14.6808 23.7969 15.1519 23.7969 15.7355C23.7969 16.3191 24.268 16.7901 24.8516 16.7901C25.4352 16.7901 25.9062 16.3191 25.9062 15.7355C25.9062 15.1519 25.4352 14.6808 24.8516 14.6808Z" fill="white"/>
</g>
<defs>
<clipPath id="clip0_374_1676">
<rect width="18" height="18" fill="white" transform="translate(11 11.4814)"/>
</clipPath>
</defs>
</svg>
