<svg width="50" height="51" viewBox="0 0 50 51" fill="none" xmlns="http://www.w3.org/2000/svg">
<path d="M8.33366 42.1483C7.18783 42.1483 6.20692 41.7403 5.39095 40.9243C4.57498 40.1083 4.16699 39.1274 4.16699 37.9816V12.9816C4.16699 11.8358 4.57498 10.8549 5.39095 10.0389C6.20692 9.22293 7.18783 8.81494 8.33366 8.81494H41.667C42.8128 8.81494 43.7937 9.22293 44.6097 10.0389C45.4257 10.8549 45.8337 11.8358 45.8337 12.9816V37.9816C45.8337 39.1274 45.4257 40.1083 44.6097 40.9243C43.7937 41.7403 42.8128 42.1483 41.667 42.1483H8.33366ZM25.0003 27.5649L8.33366 17.1483V37.9816H41.667V17.1483L25.0003 27.5649ZM25.0003 23.3983L41.667 12.9816H8.33366L25.0003 23.3983ZM8.33366 17.1483V12.9816V37.9816V17.1483Z" fill="white"/>
</svg>
