<svg width="50" height="51" viewBox="0 0 50 51" fill="none" xmlns="http://www.w3.org/2000/svg">
<path d="M41.5625 44.2314C37.2222 44.2314 32.934 43.2853 28.6979 41.3929C24.4618 39.5005 20.6076 36.8183 17.1354 33.346C13.6632 29.8738 10.9809 26.0196 9.08854 21.7835C7.19618 17.5474 6.25 13.2592 6.25 8.91895C6.25 8.29395 6.45833 7.77311 6.875 7.35645C7.29167 6.93978 7.8125 6.73145 8.4375 6.73145H16.875C17.3611 6.73145 17.7951 6.89638 18.1771 7.22624C18.559 7.5561 18.7847 7.94672 18.8542 8.39811L20.2083 15.6898C20.2778 16.2453 20.2604 16.7141 20.1562 17.096C20.0521 17.478 19.8611 17.8078 19.5833 18.0856L14.5312 23.1898C15.2257 24.4745 16.0503 25.7158 17.0052 26.9137C17.9601 28.1117 19.0104 29.2662 20.1562 30.3773C21.2326 31.4537 22.3611 32.4519 23.5417 33.3721C24.7222 34.2922 25.9722 35.1342 27.2917 35.8981L32.1875 31.0023C32.5 30.6898 32.908 30.4554 33.4115 30.2992C33.9149 30.1429 34.4097 30.0995 34.8958 30.1689L42.0833 31.6273C42.5694 31.7662 42.9688 32.0179 43.2812 32.3825C43.5938 32.7471 43.75 33.1551 43.75 33.6064V42.0439C43.75 42.6689 43.5417 43.1898 43.125 43.6064C42.7083 44.0231 42.1875 44.2314 41.5625 44.2314ZM12.5521 19.2314L15.9896 15.7939L15.1042 10.8981H10.4688C10.6424 12.3217 10.8854 13.728 11.1979 15.1169C11.5104 16.5058 11.9618 17.8773 12.5521 19.2314ZM31.1979 37.8773C32.5521 38.4676 33.9323 38.9363 35.3385 39.2835C36.7448 39.6307 38.1597 39.8564 39.5833 39.9606V35.3773L34.6875 34.3877L31.1979 37.8773Z" fill="white"/>
</svg>
