<svg width="44" height="45" viewBox="0 0 44 45" fill="none" xmlns="http://www.w3.org/2000/svg">
<g clip-path="url(#clip0_374_1731)">
<path d="M21.6333 30.1814L24.2 27.6148L18.3333 21.7481V13.3148H14.6667V23.2148L21.6333 30.1814ZM33 38.0648V34.0314C35.2611 32.962 37.0486 31.3884 38.3625 29.3106C39.6764 27.2328 40.3333 24.9564 40.3333 22.4814C40.3333 20.0064 39.6764 17.7301 38.3625 15.6523C37.0486 13.5745 35.2611 12.0009 33 10.9314V6.89811C36.3306 8.05922 38.9965 10.0683 40.9979 12.9252C42.9993 15.7821 44 18.9676 44 22.4814C44 25.9953 42.9993 29.1808 40.9979 32.0377C38.9965 34.8946 36.3306 36.9037 33 38.0648ZM16.5 38.9814C14.2083 38.9814 12.0618 38.546 10.0604 37.6752C8.05903 36.8044 6.31736 35.628 4.83542 34.146C3.35347 32.6641 2.17708 30.9224 1.30625 28.921C0.435417 26.9196 0 24.7731 0 22.4814C0 20.1898 0.435417 18.0433 1.30625 16.0419C2.17708 14.0405 3.35347 12.2988 4.83542 10.8169C6.31736 9.33492 8.05903 8.15853 10.0604 7.2877C12.0618 6.41686 14.2083 5.98145 16.5 5.98145C18.7917 5.98145 20.9382 6.41686 22.9396 7.2877C24.941 8.15853 26.6826 9.33492 28.1646 10.8169C29.6465 12.2988 30.8229 14.0405 31.6938 16.0419C32.5646 18.0433 33 20.1898 33 22.4814C33 24.7731 32.5646 26.9196 31.6938 28.921C30.8229 30.9224 29.6465 32.6641 28.1646 34.146C26.6826 35.628 24.941 36.8044 22.9396 37.6752C20.9382 38.546 18.7917 38.9814 16.5 38.9814ZM16.5 35.3148C20.075 35.3148 23.1076 34.0696 25.5979 31.5794C28.0882 29.0891 29.3333 26.0564 29.3333 22.4814C29.3333 18.9064 28.0882 15.8738 25.5979 13.3835C23.1076 10.8933 20.075 9.64811 16.5 9.64811C12.925 9.64811 9.89236 10.8933 7.40208 13.3835C4.91181 15.8738 3.66667 18.9064 3.66667 22.4814C3.66667 26.0564 4.91181 29.0891 7.40208 31.5794C9.89236 34.0696 12.925 35.3148 16.5 35.3148Z" fill="white"/>
</g>
<defs>
<clipPath id="clip0_374_1731">
<rect width="44" height="44" fill="white" transform="translate(0 0.481445)"/>
</clipPath>
</defs>
</svg>
