<svg width="40" height="41" viewBox="0 0 40 41" fill="none" xmlns="http://www.w3.org/2000/svg">
<circle cx="20" cy="20.4814" r="20" fill="white"/>
<g clip-path="url(#clip0_374_1668)">
<path fill-rule="evenodd" clip-rule="evenodd" d="M15.5674 26.7789C15.6715 26.7493 15.7807 26.7416 15.8879 26.7562C15.9952 26.7709 16.0983 26.8077 16.1907 26.8642C17.7464 27.791 19.5871 28.1175 21.3667 27.7823C23.1463 27.4471 24.7421 26.4732 25.8539 25.0438C26.9658 23.6144 27.517 21.8281 27.4041 20.0207C27.2911 18.2133 26.5217 16.5095 25.2405 15.2297C23.9593 13.9499 22.2547 13.1823 20.4472 13.0713C18.6398 12.9602 16.854 13.5134 15.4258 14.6268C13.9976 15.7401 13.0254 17.337 12.6921 19.1169C12.3587 20.8968 12.6872 22.7372 13.6157 24.292C13.672 24.384 13.7086 24.4868 13.7231 24.5938C13.7377 24.7007 13.7299 24.8095 13.7002 24.9133C13.4823 25.6845 12.9564 27.525 12.9564 27.525L15.5674 26.7789ZM12.2596 25.0733C11.1409 23.1875 10.7491 20.9582 11.1577 18.804C11.5664 16.6498 12.7474 14.7189 14.479 13.3738C16.2106 12.0287 18.3737 11.3621 20.5621 11.499C22.7504 11.636 24.8135 12.5671 26.364 14.1175C27.9144 15.6679 28.8455 17.731 28.9824 19.9194C29.1194 22.1077 28.4527 24.2708 27.1076 26.0024C25.7626 27.734 23.8316 28.9151 21.6774 29.3237C19.5232 29.7324 17.2939 29.3406 15.4081 28.2219C15.4081 28.2219 12.913 28.9348 11.6774 29.2881C11.6102 29.3072 11.5392 29.3081 11.4717 29.2905C11.4041 29.273 11.3424 29.2377 11.2931 29.1884C11.2437 29.139 11.2085 29.0774 11.1909 29.0098C11.1734 28.9422 11.1742 28.8712 11.1934 28.8041L12.2596 25.0733Z" fill="#161616"/>
<path fill-rule="evenodd" clip-rule="evenodd" d="M15.6879 18.0508C15.8096 19.8028 16.5573 21.4527 17.7945 22.6991C19.0318 23.9456 20.676 24.7055 22.4271 24.8401H22.4279C22.7075 24.8618 22.9884 24.8226 23.2514 24.7253C23.5144 24.6281 23.7533 24.475 23.9515 24.2767L24.2246 24.0036C24.3535 23.8746 24.426 23.6997 24.4261 23.5172V22.9374C24.4261 22.8647 24.4058 22.7934 24.3676 22.7316C24.3294 22.6697 24.2747 22.6197 24.2097 22.5872L22.4651 21.7151C22.3916 21.6783 22.3084 21.6655 22.2273 21.6786C22.1462 21.6918 22.0712 21.7301 22.0131 21.7882L21.2541 22.5473C21.2085 22.5928 21.1525 22.6264 21.0908 22.6451C21.0292 22.6638 20.9639 22.6671 20.9008 22.6545L20.8972 22.6537C20.1397 22.5022 19.444 22.1299 18.8978 21.5837C18.3515 21.0374 17.9792 20.3417 17.8277 19.5842L17.8269 19.5807C17.8144 19.5175 17.8176 19.4522 17.8363 19.3906C17.855 19.329 17.8886 19.2729 17.9342 19.2274L18.6932 18.4683C18.7513 18.4102 18.7897 18.3353 18.8028 18.2542C18.8159 18.173 18.8032 18.0899 18.7664 18.0164L17.8942 16.2717C17.8617 16.2067 17.8117 16.152 17.7499 16.1138C17.688 16.0756 17.6168 16.0554 17.5441 16.0553H17.0511C16.934 16.0554 16.8182 16.08 16.7113 16.1276C16.6043 16.1751 16.5085 16.2446 16.4301 16.3316L16.1703 16.6203C15.9995 16.8099 15.8685 17.032 15.7853 17.2732C15.7021 17.5145 15.6683 17.77 15.6859 18.0246L15.6879 18.0508Z" fill="#161616"/>
</g>
<defs>
<clipPath id="clip0_374_1668">
<rect width="18" height="18" fill="white" transform="translate(11 11.4814)"/>
</clipPath>
</defs>
</svg>
