<svg width="44" height="45" viewBox="0 0 44 45" fill="none" xmlns="http://www.w3.org/2000/svg">
<path d="M22.0003 40.8146C19.4642 40.8146 17.0809 40.3334 14.8503 39.3709C12.6198 38.4084 10.6795 37.1021 9.02949 35.4521C7.37949 33.8021 6.07324 31.8618 5.11074 29.6313C4.14824 27.4007 3.66699 25.0174 3.66699 22.4813C3.66699 19.9452 4.14824 17.5618 5.11074 15.3313C6.07324 13.1007 7.37949 11.1604 9.02949 9.51045C10.6795 7.86045 12.6198 6.5542 14.8503 5.5917C17.0809 4.6292 19.4642 4.14795 22.0003 4.14795C26.4614 4.14795 30.3649 5.54587 33.7107 8.3417C37.0566 11.1375 39.142 14.6438 39.967 18.8604H36.2087C35.6281 16.6299 34.5816 14.6361 33.0691 12.8792C31.5566 11.1223 29.7003 9.80073 27.5003 8.91462V9.64795C27.5003 10.6563 27.1413 11.5195 26.4232 12.2375C25.7052 12.9556 24.842 13.3146 23.8337 13.3146H20.167V16.9813C20.167 17.5007 19.9913 17.9361 19.6399 18.2875C19.2885 18.6389 18.8531 18.8146 18.3337 18.8146H14.667V22.4813H18.3337V27.9813H16.5003L7.70033 19.1813C7.60866 19.7313 7.52463 20.2813 7.44824 20.8313C7.37185 21.3813 7.33366 21.9313 7.33366 22.4813C7.33366 26.4841 8.73921 29.9216 11.5503 32.7938C14.3614 35.666 17.8448 37.1174 22.0003 37.1479V40.8146ZM38.6837 39.8979L32.817 34.0313C32.1753 34.3979 31.4878 34.7035 30.7545 34.948C30.0212 35.1924 29.242 35.3146 28.417 35.3146C26.1253 35.3146 24.1774 34.5125 22.5732 32.9084C20.9691 31.3042 20.167 29.3563 20.167 27.0646C20.167 24.7729 20.9691 22.825 22.5732 21.2209C24.1774 19.6167 26.1253 18.8146 28.417 18.8146C30.7087 18.8146 32.6566 19.6167 34.2607 21.2209C35.8649 22.825 36.667 24.7729 36.667 27.0646C36.667 27.8896 36.5448 28.6688 36.3003 29.4021C36.0559 30.1355 35.7503 30.823 35.3837 31.4646L41.2503 37.3313L38.6837 39.8979ZM28.417 31.6479C29.7003 31.6479 30.785 31.2049 31.6712 30.3188C32.5573 29.4327 33.0003 28.3479 33.0003 27.0646C33.0003 25.7813 32.5573 24.6966 31.6712 23.8104C30.785 22.9243 29.7003 22.4813 28.417 22.4813C27.1337 22.4813 26.0489 22.9243 25.1628 23.8104C24.2767 24.6966 23.8337 25.7813 23.8337 27.0646C23.8337 28.3479 24.2767 29.4327 25.1628 30.3188C26.0489 31.2049 27.1337 31.6479 28.417 31.6479Z" fill="white"/>
</svg>
