<svg width="76" height="138" viewBox="0 0 76 138" fill="none" xmlns="http://www.w3.org/2000/svg">
<g clip-path="url(#clip0_374_1219)">
<path d="M15.5088 20.515C13.0526 20.515 11.0175 18.4765 11.0175 16.0163C11.0175 13.5561 13.0526 11.5176 15.5088 11.5176C17.9649 11.5176 20 13.5561 20 16.0163C20 18.4765 17.9649 20.515 15.5088 20.515Z" fill="white"/>
<path d="M14.4562 31.5507C12.0001 31.5507 9.965 29.5122 9.965 27.0519C9.965 24.5917 12.0001 22.5532 14.4562 22.5532C16.9124 22.5532 18.9475 24.5917 18.9475 27.0519C19.0176 29.5122 16.9825 31.5507 14.4562 31.5507Z" fill="white"/>
<path d="M5.47361 9.47888C3.01747 9.47888 0.982386 7.4404 0.982386 4.98016C0.982386 2.51993 3.01747 0.481445 5.47361 0.481445C7.92975 0.481445 9.96484 2.51993 9.96484 4.98016C9.96484 7.51069 7.99993 9.47888 5.47361 9.47888Z" fill="white"/>
<path d="M4.49119 20.515C2.03505 20.515 -3.62396e-05 18.4765 -3.62396e-05 16.0163C-3.62396e-05 13.5561 2.03505 11.5176 4.49119 11.5176C6.94733 11.5176 8.98242 13.5561 8.98242 16.0163C8.98242 18.4765 6.94733 20.515 4.49119 20.515Z" fill="white"/>
<path d="M71.5088 9.47888C69.0526 9.47888 67.0175 7.4404 67.0175 4.98016C67.0175 2.51993 68.9825 0.481445 71.5088 0.481445C73.9649 0.481445 76 2.51993 76 4.98016C76 7.51069 73.9649 9.47888 71.5088 9.47888Z" fill="white"/>
<path d="M70.5264 20.515C68.0702 20.515 66.0351 18.4765 66.0351 16.0163C66.0351 13.5561 68.0702 11.5176 70.5264 11.5176C72.9825 11.5176 75.0176 13.5561 75.0176 16.0163C75.0176 18.4765 72.9825 20.515 70.5264 20.515Z" fill="white"/>
<path d="M25.7544 31.5507C23.2982 31.5507 21.2631 29.5122 21.2631 27.0519C21.2631 24.5917 23.2982 22.5532 25.7544 22.5532C28.2105 22.5532 30.2456 24.5917 30.2456 27.0519C30.2456 29.5122 28.2105 31.5507 25.7544 31.5507Z" fill="white"/>
<path d="M48.2106 31.5507C45.7545 31.5507 43.7194 29.5122 43.7194 27.0519C43.7194 24.5917 45.7545 22.5532 48.2106 22.5532C50.6668 22.5532 52.7019 24.5917 52.7019 27.0519C52.772 29.5122 50.7369 31.5507 48.2106 31.5507Z" fill="white"/>
<path d="M59.5088 20.515C57.0526 20.515 55.0175 18.4765 55.0175 16.0163C55.0175 13.5561 57.0526 11.5176 59.5088 11.5176C61.9649 11.5176 64 13.5561 64 16.0163C64 18.4765 61.9649 20.515 59.5088 20.515Z" fill="white"/>
<path d="M55.0175 27.0519C55.0175 29.5365 57.0283 31.5507 59.5088 31.5507C61.9892 31.5507 64 29.5365 64 27.0519C64 24.5674 61.9892 22.5532 59.5088 22.5532C57.0283 22.5532 55.0175 24.5674 55.0175 27.0519Z" fill="white"/>
<path d="M37.4736 42.5868C35.0175 42.5868 32.9824 40.5483 32.9824 38.0881C32.9824 35.6278 35.0175 33.519 37.4736 33.519C39.9298 33.519 41.9648 35.5575 41.9648 38.0178C41.9648 40.478 39.9999 42.5868 37.4736 42.5868Z" fill="white"/>
<path d="M26.456 42.5868C23.9999 42.5868 21.9648 40.5483 21.9648 38.0881C21.9648 35.6278 23.9999 33.519 26.456 33.519C28.9122 33.519 30.9473 35.5575 30.9473 38.0178C30.9473 40.478 28.9824 42.5868 26.456 42.5868Z" fill="white"/>
<path d="M37.4736 53.5521C35.0175 53.5521 32.9824 51.5136 32.9824 49.0534C32.9824 46.5932 35.0175 44.5547 37.4736 44.5547C39.9298 44.5547 41.9648 46.5932 41.9648 49.0534C41.9648 51.5839 39.9999 53.5521 37.4736 53.5521Z" fill="white"/>
<path d="M48.4912 42.5868C46.0351 42.5868 44 40.5483 44 38.0881C44 35.6278 46.0351 33.519 48.4912 33.519C50.9473 33.519 52.9824 35.5575 52.9824 38.0178C52.9824 40.478 50.9473 42.5868 48.4912 42.5868Z" fill="white"/>
<path d="M15.5088 61.2845C13.0526 61.2845 11.0175 59.2461 11.0175 56.7858C11.0175 54.3256 13.0526 52.2871 15.5088 52.2871C17.9649 52.2871 20 54.3256 20 56.7858C20 59.2461 17.9649 61.2845 15.5088 61.2845Z" fill="white"/>
<path d="M14.4562 72.3202C12.0001 72.3202 9.965 70.2817 9.965 67.8215C9.965 65.3612 12.0001 63.3228 14.4562 63.3228C16.9124 63.3228 18.9475 65.3612 18.9475 67.8215C19.0176 70.2817 16.9825 72.3202 14.4562 72.3202Z" fill="white"/>
<path d="M5.47361 50.2484C3.01747 50.2484 0.982386 48.2099 0.982386 45.7497C0.982386 43.2895 3.01747 41.251 5.47361 41.251C7.92975 41.251 9.96484 43.2895 9.96484 45.7497C9.96484 48.2802 7.99993 50.2484 5.47361 50.2484Z" fill="white"/>
<path d="M4.49119 61.2845C2.03505 61.2845 -3.62396e-05 59.2461 -3.62396e-05 56.7858C-3.62396e-05 54.3256 2.03505 52.2871 4.49119 52.2871C6.94733 52.2871 8.98242 54.3256 8.98242 56.7858C8.98242 59.2461 6.94733 61.2845 4.49119 61.2845Z" fill="white"/>
<path d="M71.5088 50.2484C69.0526 50.2484 67.0175 48.2099 67.0175 45.7497C67.0175 43.2895 69.0526 41.251 71.5088 41.251C73.9649 41.251 76 43.2895 76 45.7497C76 48.2802 73.9649 50.2484 71.5088 50.2484Z" fill="white"/>
<path d="M70.5264 61.2845C68.0702 61.2845 66.0351 59.2461 66.0351 56.7858C66.0351 54.3256 68.0702 52.2871 70.5264 52.2871C72.9825 52.2871 75.0176 54.3256 75.0176 56.7858C75.0176 59.2461 72.9825 61.2845 70.5264 61.2845Z" fill="white"/>
<path d="M25.7544 72.3202C23.2982 72.3202 21.2631 70.2817 21.2631 67.8215C21.2631 65.3612 23.2982 63.3228 25.7544 63.3228C28.2105 63.3228 30.2456 65.3612 30.2456 67.8215C30.2456 70.2817 28.2105 72.3202 25.7544 72.3202Z" fill="white"/>
<path d="M48.2106 72.3202C45.7545 72.3202 43.7194 70.2817 43.7194 67.8215C43.7194 65.3612 45.7545 63.3228 48.2106 63.3228C50.6668 63.3228 52.7019 65.3612 52.7019 67.8215C52.772 70.2817 50.7369 72.3202 48.2106 72.3202Z" fill="white"/>
<path d="M59.5088 61.2845C57.0526 61.2845 55.0175 59.2461 55.0175 56.7858C55.0175 54.3256 57.0526 52.2871 59.5088 52.2871C61.9649 52.2871 64 54.3256 64 56.7858C64 59.2461 61.9649 61.2845 59.5088 61.2845Z" fill="white"/>
<path d="M59.5088 72.3202C57.0526 72.3202 55.0175 70.2817 55.0175 67.8215C55.0175 65.3612 57.0526 63.3228 59.5088 63.3228C61.9649 63.3228 64 65.3612 64 67.8215C64 70.2817 61.9649 72.3202 59.5088 72.3202Z" fill="white"/>
<path d="M37.4736 83.3563C35.0175 83.3563 32.9824 81.3178 32.9824 78.8576C32.9824 76.3974 35.0175 74.3589 37.4736 74.3589C39.9298 74.3589 41.9648 76.3974 41.9648 78.8576C41.9648 81.3178 39.9999 83.3563 37.4736 83.3563Z" fill="white"/>
<path d="M26.4562 83.3563C24.0001 83.3563 21.965 81.3178 21.965 78.8576C21.965 76.3974 24.0001 74.3589 26.4562 74.3589C28.9124 74.3589 30.9475 76.3974 30.9475 78.8576C31.0176 81.3178 28.9825 83.3563 26.4562 83.3563Z" fill="white"/>
<path d="M37.4736 94.3217C35.0175 94.3217 32.9824 92.2832 32.9824 89.8229C32.9824 87.3627 35.0175 85.3242 37.4736 85.3242C39.9298 85.3242 41.9648 87.3627 41.9648 89.8229C41.9648 92.3535 39.9999 94.3217 37.4736 94.3217Z" fill="white"/>
<path d="M48.4912 83.3563C46.0351 83.3563 44 81.3178 44 78.8576C44 76.3974 46.0351 74.3589 48.4912 74.3589C50.9473 74.3589 52.9824 76.3974 52.9824 78.8576C52.9824 81.3178 50.9473 83.3563 48.4912 83.3563Z" fill="white"/>
<path d="M15.5088 104.444C13.0526 104.444 11.0175 102.406 11.0175 99.9455C11.0175 97.4853 13.0526 95.4468 15.5088 95.4468C17.9649 95.4468 20 97.4853 20 99.9455C20 102.406 17.9649 104.444 15.5088 104.444Z" fill="white"/>
<path d="M14.4562 115.48C12.0001 115.48 9.965 113.441 9.965 110.981C9.965 108.521 12.0001 106.482 14.4562 106.482C16.9124 106.482 18.9475 108.521 18.9475 110.981C19.0176 113.441 16.9825 115.48 14.4562 115.48Z" fill="white"/>
<path d="M5.47361 93.4081C3.01747 93.4081 0.982386 91.3696 0.982386 88.9094C0.982386 86.4491 3.01747 84.4106 5.47361 84.4106C7.92975 84.4106 9.96484 86.4491 9.96484 88.9094C9.96484 91.3696 7.99993 93.4081 5.47361 93.4081Z" fill="white"/>
<path d="M4.49119 104.444C2.03505 104.444 -3.62396e-05 102.406 -3.62396e-05 99.9455C-3.62396e-05 97.4853 2.03505 95.4468 4.49119 95.4468C6.94733 95.4468 8.98242 97.4853 8.98242 99.9455C8.98242 102.406 6.94733 104.444 4.49119 104.444Z" fill="white"/>
<path d="M71.5088 93.4081C69.0526 93.4081 67.0175 91.3696 67.0175 88.9094C67.0175 86.4491 69.0526 84.4106 71.5088 84.4106C73.9649 84.4106 76 86.4491 76 88.9094C76 91.3696 73.9649 93.4081 71.5088 93.4081Z" fill="white"/>
<path d="M70.5264 104.444C68.0702 104.444 66.0351 102.406 66.0351 99.9455C66.0351 97.4853 68.0702 95.4468 70.5264 95.4468C72.9825 95.4468 75.0176 97.4853 75.0176 99.9455C75.0176 102.406 72.9825 104.444 70.5264 104.444Z" fill="white"/>
<path d="M25.7544 115.48C23.2982 115.48 21.2631 113.441 21.2631 110.981C21.2631 108.521 23.2982 106.482 25.7544 106.482C28.2105 106.482 30.2456 108.521 30.2456 110.981C30.2456 113.441 28.2105 115.48 25.7544 115.48Z" fill="white"/>
<path d="M48.2106 115.48C45.7545 115.48 43.7194 113.441 43.7194 110.981C43.7194 108.521 45.7545 106.482 48.2106 106.482C50.6668 106.482 52.7019 108.521 52.7019 110.981C52.772 113.441 50.7369 115.48 48.2106 115.48Z" fill="white"/>
<path d="M59.5088 104.444C57.0526 104.444 55.0175 102.406 55.0175 99.9455C55.0175 97.4853 57.0526 95.4468 59.5088 95.4468C61.9649 95.4468 64 97.4853 64 99.9455C64 102.406 61.9649 104.444 59.5088 104.444Z" fill="white"/>
<path d="M59.5088 115.48C57.0526 115.48 55.0175 113.441 55.0175 110.981C55.0175 108.521 57.0526 106.482 59.5088 106.482C61.9649 106.482 64 108.521 64 110.981C64 113.441 61.9649 115.48 59.5088 115.48Z" fill="white"/>
<path d="M37.4736 126.516C35.0175 126.516 32.9824 124.478 32.9824 122.017C32.9824 119.557 35.0175 117.519 37.4736 117.519C39.9298 117.519 41.9648 119.557 41.9648 122.017C41.9648 124.478 39.9999 126.516 37.4736 126.516Z" fill="white"/>
<path d="M26.4562 126.516C24.0001 126.516 21.965 124.478 21.965 122.017C21.965 119.557 24.0001 117.519 26.4562 117.519C28.9124 117.519 30.9475 119.557 30.9475 122.017C31.0176 124.478 28.9825 126.516 26.4562 126.516Z" fill="white"/>
<path d="M37.4736 137.481C35.0175 137.481 32.9824 135.443 32.9824 132.983C32.9824 130.522 35.0175 128.484 37.4736 128.484C39.9298 128.484 41.9648 130.522 41.9648 132.983C41.9648 135.513 39.9999 137.481 37.4736 137.481Z" fill="white"/>
<path d="M48.4912 126.516C46.0351 126.516 44 124.478 44 122.017C44 119.557 46.0351 117.519 48.4912 117.519C50.9473 117.519 52.9824 119.557 52.9824 122.017C52.9824 124.478 50.9473 126.516 48.4912 126.516Z" fill="white"/>
</g>
<defs>
<clipPath id="clip0_374_1219">
<rect width="137" height="76" fill="white" transform="matrix(0 1 -1 0 76 0.481445)"/>
</clipPath>
</defs>
</svg>
