<svg width="188" height="24" viewBox="0 0 188 24" fill="none" xmlns="http://www.w3.org/2000/svg">
<path d="M5.18302 21.6543C6.12995 22.3776 7.15589 22.9888 8.24072 23.4761V16.9307H1.57428C2.29433 18.8273 3.54891 20.4695 5.18302 21.6543Z" fill="white"/>
<path d="M1.07963 12.7091C1.07963 13.1019 1.07963 13.5273 1.07963 13.9419C1.07963 14.1055 1.07963 14.2582 1.07963 14.4109C1.07963 14.5637 1.07963 14.7164 1.07963 14.8582H8.24308V12.6764V11.9019H1.07963C1.07963 12.1419 1.07963 12.4037 1.0256 12.6764" fill="white"/>
<path d="M180.838 15.5128L186.543 8.07275H183.204L178.623 14.051L176.538 14.8037V8.07275H173.567V23.28H176.538V17.7055L178.396 17.0291L183.302 23.28H186.964L180.838 15.5128Z" fill="white"/>
<path d="M166.964 14.16H159.768V8.07275H156.776V23.28H159.768V16.8655H166.964V23.28H169.936V8.07275H166.964V14.16Z" fill="white"/>
<path d="M107.256 15.5128L112.961 8.07275H109.633L105.041 14.051L102.956 14.8037V8.07275H99.9847V23.28H102.956V17.7055L104.814 17.0291L109.72 23.28H113.382L107.256 15.5128Z" fill="white"/>
<path d="M86.2608 18.3382H86.2392V8.07275H83.2463V23.28H85.8286L93.381 13.0473H93.4134V23.28H96.3955V8.07275H93.8132L86.2608 18.3382Z" fill="white"/>
<path d="M77.6939 15.4582C78.359 15.2182 78.9337 14.7754 79.3383 14.1909C79.7429 13.6065 79.9574 12.9094 79.9521 12.1964C79.9521 9.96003 78.3746 8.07275 74.982 8.07275H67.1487V23.28H75.09C78.6123 23.28 80.3735 21.5673 80.3735 18.9164C80.3946 18.1154 80.1385 17.332 79.6495 16.7009C79.1604 16.0698 78.4691 15.6304 77.6939 15.4582ZM70.1307 10.7237H74.982C75.2254 10.6991 75.4713 10.7267 75.7034 10.8046C75.9356 10.8824 76.1489 11.0089 76.3294 11.1757C76.5099 11.3425 76.6535 11.5458 76.7509 11.7725C76.8483 11.9991 76.8971 12.244 76.8944 12.491C76.8915 12.7516 76.8344 13.0088 76.727 13.2459C76.6196 13.4829 76.4642 13.6946 76.2708 13.8672C76.0774 14.0399 75.8502 14.1698 75.604 14.2484C75.3579 14.327 75.0981 14.3526 74.8415 14.3237H70.1199L70.1307 10.7237ZM75.1224 20.651H70.1199V16.7891H74.9496C76.5054 16.7891 77.3374 17.5419 77.3374 18.7419C77.3276 19.0192 77.2606 19.2912 77.1409 19.541C77.021 19.7907 76.851 20.0124 76.6416 20.192C76.4321 20.3717 76.1879 20.5052 75.9245 20.5843C75.6611 20.6633 75.3842 20.686 75.1116 20.651H75.1224Z" fill="white"/>
<path d="M57.9428 8.07275H50.9846V23.28H53.9559V19.571H57.9428C61.9837 19.571 64.5011 17.3891 64.5011 13.8219C64.5011 10.2546 61.9837 8.07275 57.9428 8.07275ZM57.9428 16.8H53.9559V10.8218H57.9211C60.0821 10.8218 61.4326 11.9128 61.4326 13.8219C61.4326 15.731 60.0496 16.811 57.9211 16.811L57.9428 16.8Z" fill="white"/>
<path d="M150.367 10.2652C149.762 9.41468 148.961 8.72644 148.032 8.26056C147.104 7.79468 146.076 7.56532 145.04 7.59249C140.016 7.59249 137.315 11.3561 137.315 15.6762C137.315 19.9962 140.016 23.7707 145.04 23.7707C146.075 23.7944 147.099 23.5646 148.027 23.1011C148.954 22.6376 149.757 21.9539 150.367 21.1089V23.2907H153.187V8.07249H150.367V10.2652ZM150.183 15.9489C150.183 19.1562 148.292 21.0434 145.397 21.0434C142.339 21.0434 140.351 18.9162 140.351 15.6762C140.351 12.4362 142.339 10.3198 145.397 10.3198C148.271 10.3198 150.183 12.2507 150.183 15.4143V15.9489Z" fill="white"/>
<path d="M39.9772 7.59286C38.9023 7.53321 37.8269 7.7001 36.8194 8.0829C35.8118 8.4657 34.8942 9.05604 34.1248 9.81637C33.3555 10.5767 32.7515 11.4903 32.3508 12.4993C31.9503 13.5082 31.7621 14.5901 31.7982 15.6765C31.7604 16.7632 31.9475 17.8461 32.3475 18.8557C32.7475 19.8653 33.3515 20.7797 34.1213 21.5403C34.8909 22.301 35.8092 22.8913 36.8174 23.2736C37.8257 23.6557 38.902 23.8214 39.9772 23.7601C41.0525 23.8214 42.1287 23.6557 43.1371 23.2736C44.1453 22.8913 45.0636 22.301 45.8332 21.5403C46.603 20.7797 47.207 19.8653 47.607 18.8557C48.007 17.8461 48.194 16.7632 48.1563 15.6765C48.1924 14.5901 48.0042 13.5082 47.6037 12.4993C47.203 11.4903 46.599 10.5767 45.8296 9.81637C45.0603 9.05604 44.1426 8.4657 43.1351 8.0829C42.1276 7.7001 41.0521 7.53321 39.9772 7.59286ZM39.9772 21.0437C39.2822 21.0689 38.5898 20.9456 37.9452 20.6817C37.3007 20.4179 36.7187 20.0196 36.2372 19.5129C35.7558 19.0061 35.3858 18.4024 35.1515 17.7413C34.9171 17.0803 34.8238 16.3766 34.8775 15.6765C34.8457 14.9811 34.954 14.2864 35.1957 13.6345C35.4374 12.9825 35.8075 12.3868 36.2837 11.8834C36.7599 11.3799 37.3323 10.9792 37.9662 10.7054C38.6001 10.4316 39.2824 10.2905 39.9718 10.2905C40.6613 10.2905 41.3436 10.4316 41.9775 10.7054C42.6114 10.9792 43.1837 11.3799 43.66 11.8834C44.1362 12.3868 44.5062 12.9825 44.748 13.6345C44.9897 14.2864 45.098 14.9811 45.0662 15.6765C45.1198 16.3756 45.0267 17.0783 44.793 17.7386C44.5593 18.3991 44.1903 19.0021 43.71 19.5087C43.2298 20.0152 42.649 20.4137 42.0058 20.6783C41.3626 20.9428 40.6713 21.0673 39.9772 21.0437Z" fill="white"/>
<path d="M25.5186 11.9128H16.5508V3.21826H13.223V23.2801H16.5508V14.9019H25.5186V23.2801H28.868V3.21826H25.5186V11.9128Z" fill="white"/>
<path d="M8.24278 3.21826H2.30025L1.41428 9.87281H8.24278V3.21826Z" fill="white"/>
<path d="M127.158 8.57446C126.28 8.56778 125.407 8.68902 124.565 8.93446L122.404 10.0254C122.901 7.52718 124.1 6.05446 125.775 5.71627L133.554 4.13446V1.09082L126.628 2.55264C122.393 3.43628 120.599 5.509 119.67 8.77082C119.145 10.6515 118.894 12.5991 118.925 14.5527C118.925 20.2472 121.917 23.7708 126.931 23.7708C131.609 23.7708 134.764 20.4981 134.764 16.1345C134.809 15.1191 134.643 14.1053 134.276 13.1591C133.908 12.2129 133.348 11.3553 132.63 10.6423C131.913 9.92924 131.054 9.37661 130.112 9.02036C129.168 8.6641 128.162 8.51217 127.158 8.57446ZM127.06 21.0545C123.581 21.0545 122.015 18.2072 122.015 15.0327C122.015 14.3345 122.015 13.8108 122.015 13.2545L125.472 11.4763C126.192 11.2489 126.953 11.1967 127.697 11.3241C128.441 11.4515 129.144 11.7548 129.749 12.2092C130.354 12.6636 130.843 13.2561 131.178 13.9384C131.513 14.6206 131.683 15.3732 131.674 16.1345C131.674 19.4072 129.708 21.0545 127.06 21.0545Z" fill="white"/>
</svg>
