<svg width="90" height="40" viewBox="0 0 90 40" fill="none" xmlns="http://www.w3.org/2000/svg">
<path d="M8.67803 32.7686C6.88732 32.741 5.42721 32.5482 4.29769 32.1901C3.19572 31.832 2.31414 31.3361 1.65296 30.7025C1.01932 30.0413 0.578535 29.2562 0.330592 28.3471C0.110197 27.4105 0 26.3636 0 25.2066V1.28099L6.15727 0.289257V23.9669C6.15727 24.5179 6.19859 25.0138 6.28124 25.4545C6.36389 25.8953 6.51541 26.2672 6.7358 26.5702C6.98375 26.8733 7.32811 27.1212 7.7689 27.314C8.20969 27.5069 8.802 27.6309 9.54583 27.6859L8.67803 32.7686Z" fill="white"/>
<path d="M12.0421 21.6529C12.0421 19.7245 12.3313 18.0441 12.9099 16.6116C13.5159 15.1515 14.3011 13.9394 15.2653 12.9752C16.2295 12.011 17.3315 11.281 18.5712 10.7851C19.8385 10.2893 21.1333 10.0413 22.4557 10.0413C25.5412 10.0413 27.9793 10.9917 29.77 12.8926C31.5607 14.7658 32.4561 17.5344 32.4561 21.1983C32.4561 21.5565 32.4423 21.9559 32.4148 22.3967C32.3872 22.8099 32.3597 23.1818 32.3321 23.5124H18.3646C18.5024 24.7796 19.0947 25.7851 20.1415 26.5289C21.1884 27.2727 22.5934 27.6446 24.3566 27.6446C25.4861 27.6446 26.5881 27.5482 27.6625 27.3554C28.7645 27.135 29.6598 26.8733 30.3486 26.5702L31.175 31.5702C30.8444 31.7355 30.4037 31.9008 29.8527 32.0661C29.3017 32.2314 28.6818 32.3691 27.9931 32.4793C27.3319 32.6171 26.6156 32.7273 25.8443 32.8099C25.0729 32.8926 24.3015 32.9339 23.5301 32.9339C21.5741 32.9339 19.8661 32.6446 18.4059 32.0661C16.9734 31.4876 15.775 30.7025 14.8108 29.7107C13.8741 28.6915 13.1716 27.4931 12.7032 26.1157C12.2625 24.7383 12.0421 23.2507 12.0421 21.6529ZM26.5054 19.2975C26.4779 18.7741 26.3815 18.2645 26.2162 17.7686C26.0784 17.2727 25.8442 16.832 25.5137 16.4463C25.2106 16.0606 24.8112 15.7438 24.3153 15.4959C23.8469 15.2479 23.2546 15.124 22.5383 15.124C21.8496 15.124 21.2573 15.2479 20.7614 15.4959C20.2655 15.7163 19.8523 16.0193 19.5217 16.405C19.1911 16.7906 18.9294 17.2452 18.7365 17.7686C18.5712 18.2645 18.4473 18.7741 18.3646 19.2975H26.5054Z" fill="white"/>
<path d="M37.2077 11.3636C38.2546 11.0606 39.6045 10.7851 41.2574 10.5372C42.9104 10.2617 44.646 10.124 46.4643 10.124C48.3101 10.124 49.839 10.3719 51.0512 10.8678C52.2909 11.3361 53.2689 12.011 53.9852 12.8926C54.7015 13.7741 55.2112 14.8209 55.5142 16.0331C55.8172 17.2452 55.9688 18.595 55.9688 20.0826V32.3554H49.8115V20.8264C49.8115 18.843 49.5498 17.438 49.0263 16.6116C48.5029 15.7851 47.5249 15.3719 46.0923 15.3719C45.6516 15.3719 45.1832 15.3994 44.6873 15.4545C44.1914 15.4821 43.7506 15.5234 43.365 15.5785V32.3554H37.2077V11.3636Z" fill="white"/>
<path d="M67.7819 27.9339C68.9114 27.9339 69.7104 27.8237 70.1787 27.6033C70.647 27.3829 70.8812 26.9559 70.8812 26.3223C70.8812 25.8264 70.5782 25.3994 69.9721 25.0413C69.366 24.6556 68.4431 24.2286 67.2034 23.7603C66.2392 23.4022 65.3576 23.0303 64.5587 22.6446C63.7873 22.259 63.1261 21.8044 62.5751 21.281C62.0241 20.73 61.5971 20.0826 61.2941 19.3388C60.991 18.595 60.8395 17.6997 60.8395 16.6529C60.8395 14.6143 61.5971 13.0028 63.1123 11.8182C64.6275 10.6336 66.7075 10.0413 69.3522 10.0413C70.6746 10.0413 71.9419 10.1653 73.154 10.4132C74.3662 10.6336 75.3304 10.8815 76.0467 11.157L74.9723 15.9504C74.256 15.7025 73.4708 15.4821 72.6168 15.2893C71.7903 15.0964 70.8537 15 69.8068 15C67.8783 15 66.9141 15.5372 66.9141 16.6116C66.9141 16.8595 66.9554 17.0799 67.0381 17.2727C67.1207 17.4656 67.286 17.6584 67.534 17.8512C67.7819 18.0165 68.1125 18.2094 68.5257 18.4298C68.9665 18.6226 69.5175 18.843 70.1787 19.0909C71.5286 19.5868 72.6444 20.0826 73.5259 20.5785C74.4075 21.0468 75.0963 21.5702 75.5921 22.1488C76.1156 22.6997 76.4737 23.3196 76.6666 24.0083C76.887 24.697 76.9972 25.4959 76.9972 26.405C76.9972 28.5537 76.1845 30.1791 74.559 31.281C72.9612 32.3829 70.6884 32.9339 67.7406 32.9339C65.8121 32.9339 64.2005 32.7686 62.9057 32.438C61.6384 32.1074 60.7568 31.832 60.261 31.6116L61.2941 26.6116C62.3409 27.0248 63.4154 27.3554 64.5173 27.6033C65.6193 27.8237 66.7075 27.9339 67.7819 27.9339Z" fill="white"/>
<path d="M83.9254 20C83.9254 16.7493 83.4157 13.6501 82.3964 10.7025C81.3771 7.75482 80.0409 5.11019 78.388 2.7686L82.6857 0C85.0273 2.72727 86.8318 5.78512 88.0991 9.17355C89.3664 12.562 90 16.1708 90 20C90 23.8292 89.3664 27.438 88.0991 30.8264C86.8318 34.2149 85.0273 37.2727 82.6857 40L78.388 37.2314C80.0409 34.8898 81.3771 32.2452 82.3964 29.2975C83.4157 26.3499 83.9254 23.2507 83.9254 20Z" fill="white"/>
</svg>
