<svg width="53" height="52" viewBox="0 0 53 52" fill="none" xmlns="http://www.w3.org/2000/svg">
<g clip-path="url(#clip0_374_4265)">
<path d="M26.7656 52C41.125 52 52.7656 40.3594 52.7656 26C52.7656 11.6406 41.125 0 26.7656 0C12.4062 0 0.765625 11.6406 0.765625 26C0.765625 40.3594 12.4062 52 26.7656 52Z" fill="#161616"/>
<path fill-rule="evenodd" clip-rule="evenodd" d="M12.5347 25.7255C20.1143 22.4233 25.1685 20.2462 27.6973 19.1943C34.9178 16.1911 36.4182 15.6694 37.3961 15.6522C37.6112 15.6484 38.0921 15.7017 38.4036 15.9545C38.6666 16.1679 38.739 16.4562 38.7736 16.6586C38.8083 16.8609 38.8514 17.3219 38.8171 17.6821C38.4258 21.7933 36.7328 31.7701 35.8714 36.3748C35.507 38.3232 34.7893 38.9764 34.0946 39.0404C32.5847 39.1793 31.4382 38.0425 29.9758 37.0839C27.6874 35.5839 26.3947 34.6501 24.1735 33.1864C21.6064 31.4948 23.2705 30.565 24.7335 29.0455C25.1163 28.6479 31.7688 22.5969 31.8976 22.048C31.9137 21.9794 31.9286 21.7235 31.7766 21.5883C31.6246 21.4532 31.4002 21.4994 31.2383 21.5362C31.0088 21.5883 27.3531 24.0045 20.2713 28.7849C19.2337 29.4974 18.2938 29.8446 17.4517 29.8264C16.5234 29.8063 14.7377 29.3015 13.4102 28.87C11.7819 28.3407 10.4878 28.0609 10.6005 27.162C10.6592 26.6938 11.3039 26.215 12.5347 25.7255Z" fill="white"/>
</g>
<defs>
<clipPath id="clip0_374_4265">
<rect width="52" height="52" fill="white" transform="translate(0.765625)"/>
</clipPath>
</defs>
</svg>
