<svg width="53" height="53" viewBox="0 0 53 53" fill="none" xmlns="http://www.w3.org/2000/svg">
<circle cx="26" cy="26" r="26" fill="#161616"/>
<path d="M19.4173 36.9154L19.9004 37.1542C21.9134 38.3479 24.1677 38.9049 26.4221 38.9049C33.5074 38.9049 39.3044 33.1751 39.3044 26.1719C39.3044 22.8295 37.9356 19.5666 35.5203 17.1791C33.1048 14.7916 29.8841 13.4388 26.4221 13.4388C19.3369 13.4388 13.5397 19.1687 13.6203 26.2515C13.6203 28.6389 14.3449 30.9469 15.5526 32.9363L15.8746 33.4139L14.5865 38.1092L19.4173 36.9154Z" fill="#161616"/>
<path d="M36.889 15.9058C34.1515 13.1205 30.3673 11.6084 26.5026 11.6084C18.2902 11.6084 11.688 18.2137 11.7684 26.2514C11.7684 28.798 12.4931 31.2651 13.7009 33.4934L11.6074 41.0536L19.4173 39.0641C21.5912 40.2579 24.0065 40.815 26.4221 40.815C34.5541 40.815 41.1563 34.2096 41.1563 26.172C41.1563 22.2724 39.6263 18.6116 36.889 15.9058ZM26.5026 38.348C24.3287 38.348 22.1548 37.791 20.303 36.6768L19.8199 36.4381L15.1501 37.6317L16.3578 33.0957L16.0358 32.6181C12.4931 26.9679 14.1839 19.487 19.9809 15.9853C25.778 12.4838 33.2658 14.155 36.8085 19.8849C40.3511 25.6148 38.6602 33.0159 32.8633 36.5176C31.0114 37.7113 28.757 38.348 26.5026 38.348ZM33.5878 29.5145L32.7022 29.1166C32.7022 29.1166 31.4141 28.5595 30.6089 28.1615C30.5283 28.1615 30.4479 28.0819 30.3673 28.0819C30.1257 28.0819 29.9647 28.1615 29.8037 28.2412C29.8037 28.2412 29.7232 28.3207 28.596 29.594C28.5154 29.7532 28.3544 29.8328 28.1934 29.8328H28.1129C28.0324 29.8328 27.8714 29.7532 27.7908 29.6736L27.3882 29.5145C26.5026 29.1166 25.6975 28.639 25.0533 28.0024C24.8923 27.8432 24.6507 27.6841 24.4897 27.5249C23.9261 26.9679 23.3625 26.3311 22.96 25.6149L22.8794 25.4558C22.799 25.3761 22.799 25.2966 22.7184 25.1375C22.7184 24.9783 22.7184 24.8192 22.799 24.7395C22.799 24.7395 23.121 24.3416 23.3625 24.1029C23.5236 23.9437 23.6041 23.705 23.7651 23.5458C23.9261 23.307 24.0067 22.9887 23.9261 22.75C23.8456 22.352 22.8794 20.2033 22.638 19.7259C22.4768 19.4871 22.3159 19.4076 22.0744 19.3279H21.1887C21.0276 19.3279 20.8667 19.4076 20.7056 19.4076L20.625 19.4871C20.464 19.5667 20.303 19.7259 20.1419 19.8054C19.9809 19.9647 19.9004 20.1237 19.7393 20.283C19.1757 20.9992 18.8537 21.8746 18.8537 22.75C18.8537 23.3866 19.0147 24.0233 19.2563 24.5804L19.3369 24.8192C20.0615 26.3311 21.0276 27.6841 22.3159 28.8778L22.638 29.1961C22.8794 29.4349 23.121 29.594 23.282 29.8327C24.9729 31.2653 26.9052 32.2998 29.0791 32.8569C29.3206 32.9364 29.6427 32.9364 29.8843 33.016H30.6893C31.0919 33.016 31.575 32.8569 31.8971 32.6977C32.1386 32.5386 32.2996 32.5386 32.4606 32.3794L32.6217 32.2202C32.7828 32.061 32.9438 31.9815 33.1048 31.8223C33.2658 31.6632 33.4268 31.504 33.5074 31.3448C33.6684 31.0265 33.7489 30.6285 33.8294 30.2307V29.6736C33.8294 29.6736 33.7489 29.594 33.5878 29.5145Z" fill="white"/>
</svg>
